<?xml version="1.0" encoding="UTF-8" standalone="no"?>
<!DOCTYPE svg PUBLIC "-//W3C//DTD SVG 1.1//EN"
 "http://www.w3.org/Graphics/SVG/1.1/DTD/svg11.dtd">
<!-- Generated by graphviz version 2.47.0 (20210316.0004)
 -->
<!-- Title: dependencies Pages: 1 -->
<svg width="504pt" height="219pt"
 viewBox="0.00 0.00 504.00 219.00" xmlns="http://www.w3.org/2000/svg" xmlns:xlink="http://www.w3.org/1999/xlink">
<g id="graph0" class="graph" transform="scale(1 1) rotate(0) translate(4 215)">
<title>dependencies</title>
<polygon fill="white" stroke="transparent" points="-4,4 -4,-215 500,-215 500,4 -4,4"/>
<text text-anchor="start" x="227.01" y="-42.4" font-family="Times-12" font-weight="bold" font-size="14.00">Legend</text>
<polygon fill="#ffffb3" stroke="transparent" points="14,-10 14,-30 34,-30 34,-10 14,-10"/>
<text text-anchor="start" x="37.63" y="-15.4" font-family="Times-12" font-size="14.00"> &#160;Declarations</text>
<polygon fill="#8dd3c7" stroke="transparent" points="127,-10 127,-30 147,-30 147,-10 127,-10"/>
<text text-anchor="start" x="150.73" y="-15.4" font-family="Times-12" font-size="14.00"> &#160;Module</text>
<polygon fill="#80b1d3" stroke="transparent" points="213,-10 213,-30 233,-30 233,-10 213,-10"/>
<text text-anchor="start" x="236.78" y="-15.4" font-family="Times-12" font-size="14.00"> &#160;Bootstrap</text>
<polygon fill="#fdb462" stroke="transparent" points="310,-10 310,-30 330,-30 330,-10 310,-10"/>
<text text-anchor="start" x="333.67" y="-15.4" font-family="Times-12" font-size="14.00"> &#160;Providers</text>
<polygon fill="#fb8072" stroke="transparent" points="406,-10 406,-30 426,-30 426,-10 406,-10"/>
<text text-anchor="start" x="429.73" y="-15.4" font-family="Times-12" font-size="14.00"> &#160;Exports</text>
<g id="clust1" class="cluster">
<title>cluster_PluginModule</title>
<polygon fill="none" stroke="black" stroke-dasharray="1,5" points="12.5,-70 12.5,-203 483.5,-203 483.5,-70 12.5,-70"/>
</g>
<g id="clust3" class="cluster">
<title>cluster_PluginModule_imports</title>
<polygon fill="none" stroke="black" points="20.5,-78 20.5,-195 475.5,-195 475.5,-78 20.5,-78"/>
</g>
<!-- BasicAuthModule -->
<g id="node1" class="node">
<title>BasicAuthModule</title>
<polygon fill="#8dd3c7" stroke="black" points="467.65,-122 464.65,-126 443.65,-126 440.65,-122 349.35,-122 349.35,-86 467.65,-86 467.65,-122"/>
<text text-anchor="middle" x="408.5" y="-99.8" font-family="Times,serif" font-size="14.00">BasicAuthModule</text>
</g>
<!-- PluginModule -->
<g id="node4" class="node">
<title>PluginModule</title>
<polygon fill="#8dd3c7" stroke="black" points="282.61,-187 279.61,-191 258.61,-191 255.61,-187 186.39,-187 186.39,-151 282.61,-151 282.61,-187"/>
<text text-anchor="middle" x="234.5" y="-164.8" font-family="Times,serif" font-size="14.00">PluginModule</text>
</g>
<!-- BasicAuthModule&#45;&gt;PluginModule -->
<g id="edge1" class="edge">
<title>BasicAuthModule&#45;&gt;PluginModule</title>
<path fill="none" stroke="black" d="M408.5,-122.11C408.5,-141.34 408.5,-169 408.5,-169 408.5,-169 292.97,-169 292.97,-169"/>
<polygon fill="black" stroke="black" points="292.97,-165.5 282.97,-169 292.97,-172.5 292.97,-165.5"/>
</g>
<!-- CoreModule -->
<g id="node2" class="node">
<title>CoreModule</title>
<polygon fill="#8dd3c7" stroke="black" points="330.76,-122 327.76,-126 306.76,-126 303.76,-122 244.24,-122 244.24,-86 330.76,-86 330.76,-122"/>
<text text-anchor="middle" x="287.5" y="-99.8" font-family="Times,serif" font-size="14.00">CoreModule</text>
</g>
<!-- CoreModule&#45;&gt;PluginModule -->
<g id="edge2" class="edge">
<title>CoreModule&#45;&gt;PluginModule</title>
<path fill="none" stroke="black" d="M256.93,-122.11C256.93,-122.11 256.93,-140.99 256.93,-140.99"/>
<polygon fill="black" stroke="black" points="253.43,-140.99 256.93,-150.99 260.43,-140.99 253.43,-140.99"/>
</g>
<!-- InfraModule -->
<g id="node3" class="node">
<title>InfraModule</title>
<polygon fill="#8dd3c7" stroke="black" points="225.75,-122 222.75,-126 201.75,-126 198.75,-122 139.25,-122 139.25,-86 225.75,-86 225.75,-122"/>
<text text-anchor="middle" x="182.5" y="-99.8" font-family="Times,serif" font-size="14.00">InfraModule</text>
</g>
<!-- InfraModule&#45;&gt;PluginModule -->
<g id="edge3" class="edge">
<title>InfraModule&#45;&gt;PluginModule</title>
<path fill="none" stroke="black" d="M206.16,-122.11C206.16,-122.11 206.16,-140.99 206.16,-140.99"/>
<polygon fill="black" stroke="black" points="202.66,-140.99 206.16,-150.99 209.66,-140.99 202.66,-140.99"/>
</g>
<!-- PluginModule&#45;&gt;PluginModule -->
<g id="edge4" class="edge">
<title>PluginModule&#45;&gt;PluginModule</title>
<path fill="none" stroke="black" d="M269.74,-150.76C269.74,-143.57 269.74,-137 269.74,-137 269.74,-137 306.72,-137 306.72,-137 306.72,-137 306.72,-205 306.72,-205 306.72,-205 234.5,-205 234.5,-205 234.5,-205 234.5,-197.42 234.5,-197.42"/>
<polygon fill="black" stroke="black" points="238,-197.42 234.5,-187.42 231,-197.42 238,-197.42"/>
</g>
<!-- RouteModule -->
<g id="node5" class="node">
<title>RouteModule</title>
<polygon fill="#8dd3c7" stroke="black" points="120.99,-122 117.99,-126 96.99,-126 93.99,-122 28.01,-122 28.01,-86 120.99,-86 120.99,-122"/>
<text text-anchor="middle" x="74.5" y="-99.8" font-family="Times,serif" font-size="14.00">RouteModule</text>
</g>
<!-- RouteModule&#45;&gt;PluginModule -->
<g id="edge5" class="edge">
<title>RouteModule&#45;&gt;PluginModule</title>
<path fill="none" stroke="black" d="M74.5,-122.11C74.5,-141.34 74.5,-169 74.5,-169 74.5,-169 176.06,-169 176.06,-169"/>
<polygon fill="black" stroke="black" points="176.06,-172.5 186.06,-169 176.06,-165.5 176.06,-172.5"/>
</g>
</g>
</svg>
