<?xml version="1.0" encoding="UTF-8" standalone="no"?>
<!DOCTYPE svg PUBLIC "-//W3C//DTD SVG 1.1//EN"
 "http://www.w3.org/Graphics/SVG/1.1/DTD/svg11.dtd">
<!-- Generated by graphviz version 2.47.0 (20210316.0004)
 -->
<!-- Title: dependencies Pages: 1 -->
<svg width="504pt" height="219pt"
 viewBox="0.00 0.00 504.00 219.00" xmlns="http://www.w3.org/2000/svg" xmlns:xlink="http://www.w3.org/1999/xlink">
<g id="graph0" class="graph" transform="scale(1 1) rotate(0) translate(4 215)">
<title>dependencies</title>
<polygon fill="white" stroke="transparent" points="-4,4 -4,-215 500,-215 500,4 -4,4"/>
<text text-anchor="start" x="227.01" y="-42.4" font-family="Times-12" font-weight="bold" font-size="14.00">Legend</text>
<polygon fill="#ffffb3" stroke="transparent" points="14,-10 14,-30 34,-30 34,-10 14,-10"/>
<text text-anchor="start" x="37.63" y="-15.4" font-family="Times-12" font-size="14.00"> &#160;Declarations</text>
<polygon fill="#8dd3c7" stroke="transparent" points="127,-10 127,-30 147,-30 147,-10 127,-10"/>
<text text-anchor="start" x="150.73" y="-15.4" font-family="Times-12" font-size="14.00"> &#160;Module</text>
<polygon fill="#80b1d3" stroke="transparent" points="213,-10 213,-30 233,-30 233,-10 213,-10"/>
<text text-anchor="start" x="236.78" y="-15.4" font-family="Times-12" font-size="14.00"> &#160;Bootstrap</text>
<polygon fill="#fdb462" stroke="transparent" points="310,-10 310,-30 330,-30 330,-10 310,-10"/>
<text text-anchor="start" x="333.67" y="-15.4" font-family="Times-12" font-size="14.00"> &#160;Providers</text>
<polygon fill="#fb8072" stroke="transparent" points="406,-10 406,-30 426,-30 426,-10 406,-10"/>
<text text-anchor="start" x="429.73" y="-15.4" font-family="Times-12" font-size="14.00"> &#160;Exports</text>
<g id="clust1" class="cluster">
<title>cluster_InfraModule</title>
<polygon fill="none" stroke="black" stroke-dasharray="1,5" points="8,-70 8,-203 488,-203 488,-70 8,-70"/>
</g>
<g id="clust3" class="cluster">
<title>cluster_InfraModule_imports</title>
<polygon fill="none" stroke="black" points="16,-78 16,-195 480,-195 480,-78 16,-78"/>
</g>
<!-- BasicAuthModule -->
<g id="node1" class="node">
<title>BasicAuthModule</title>
<polygon fill="#8dd3c7" stroke="black" points="472.15,-122 469.15,-126 448.15,-126 445.15,-122 353.85,-122 353.85,-86 472.15,-86 472.15,-122"/>
<text text-anchor="middle" x="413" y="-99.8" font-family="Times,serif" font-size="14.00">BasicAuthModule</text>
</g>
<!-- InfraModule -->
<g id="node3" class="node">
<title>InfraModule</title>
<polygon fill="#8dd3c7" stroke="black" points="280.25,-187 277.25,-191 256.25,-191 253.25,-187 193.75,-187 193.75,-151 280.25,-151 280.25,-187"/>
<text text-anchor="middle" x="237" y="-164.8" font-family="Times,serif" font-size="14.00">InfraModule</text>
</g>
<!-- BasicAuthModule&#45;&gt;InfraModule -->
<g id="edge1" class="edge">
<title>BasicAuthModule&#45;&gt;InfraModule</title>
<path fill="none" stroke="black" d="M413,-122.11C413,-141.34 413,-169 413,-169 413,-169 290.51,-169 290.51,-169"/>
<polygon fill="black" stroke="black" points="290.51,-165.5 280.51,-169 290.51,-172.5 290.51,-165.5"/>
</g>
<!-- CoreModule -->
<g id="node2" class="node">
<title>CoreModule</title>
<polygon fill="#8dd3c7" stroke="black" points="335.26,-122 332.26,-126 311.26,-126 308.26,-122 248.74,-122 248.74,-86 335.26,-86 335.26,-122"/>
<text text-anchor="middle" x="292" y="-99.8" font-family="Times,serif" font-size="14.00">CoreModule</text>
</g>
<!-- CoreModule&#45;&gt;InfraModule -->
<g id="edge2" class="edge">
<title>CoreModule&#45;&gt;InfraModule</title>
<path fill="none" stroke="black" d="M259.2,-122.11C259.2,-122.11 259.2,-140.99 259.2,-140.99"/>
<polygon fill="black" stroke="black" points="255.7,-140.99 259.2,-150.99 262.7,-140.99 255.7,-140.99"/>
</g>
<!-- InfraModule&#45;&gt;InfraModule -->
<g id="edge3" class="edge">
<title>InfraModule&#45;&gt;InfraModule</title>
<path fill="none" stroke="black" d="M269.79,-150.76C269.79,-143.57 269.79,-137 269.79,-137 269.79,-137 307.88,-137 307.88,-137 307.88,-137 307.88,-205 307.88,-205 307.88,-205 237,-205 237,-205 237,-205 237,-197.42 237,-197.42"/>
<polygon fill="black" stroke="black" points="240.5,-197.42 237,-187.42 233.5,-197.42 240.5,-197.42"/>
</g>
<!-- PluginModule -->
<g id="node4" class="node">
<title>PluginModule</title>
<polygon fill="#8dd3c7" stroke="black" points="231.11,-122 228.11,-126 207.11,-126 204.11,-122 134.89,-122 134.89,-86 231.11,-86 231.11,-122"/>
<text text-anchor="middle" x="183" y="-99.8" font-family="Times,serif" font-size="14.00">PluginModule</text>
</g>
<!-- PluginModule&#45;&gt;InfraModule -->
<g id="edge4" class="edge">
<title>PluginModule&#45;&gt;InfraModule</title>
<path fill="none" stroke="black" d="M212.34,-122.11C212.34,-122.11 212.34,-140.99 212.34,-140.99"/>
<polygon fill="black" stroke="black" points="208.84,-140.99 212.34,-150.99 215.84,-140.99 208.84,-140.99"/>
</g>
<!-- RouteModule -->
<g id="node5" class="node">
<title>RouteModule</title>
<polygon fill="#8dd3c7" stroke="black" points="116.49,-122 113.49,-126 92.49,-126 89.49,-122 23.51,-122 23.51,-86 116.49,-86 116.49,-122"/>
<text text-anchor="middle" x="70" y="-99.8" font-family="Times,serif" font-size="14.00">RouteModule</text>
</g>
<!-- RouteModule&#45;&gt;InfraModule -->
<g id="edge5" class="edge">
<title>RouteModule&#45;&gt;InfraModule</title>
<path fill="none" stroke="black" d="M70,-122.11C70,-141.34 70,-169 70,-169 70,-169 183.56,-169 183.56,-169"/>
<polygon fill="black" stroke="black" points="183.56,-172.5 193.56,-169 183.56,-165.5 183.56,-172.5"/>
</g>
</g>
</svg>
