<?xml version="1.0" encoding="UTF-8" standalone="no"?>
<!DOCTYPE svg PUBLIC "-//W3C//DTD SVG 1.1//EN"
 "http://www.w3.org/Graphics/SVG/1.1/DTD/svg11.dtd">
<!-- Generated by graphviz version 2.47.0 (20210316.0004)
 -->
<!-- Title: dependencies Pages: 1 -->
<svg width="609pt" height="211pt"
 viewBox="0.00 0.00 609.00 211.00" xmlns="http://www.w3.org/2000/svg" xmlns:xlink="http://www.w3.org/1999/xlink">
<g id="graph0" class="graph" transform="scale(1 1) rotate(0) translate(4 207)">
<title>dependencies</title>
<polygon fill="white" stroke="transparent" points="-4,4 -4,-207 605,-207 605,4 -4,4"/>
<text text-anchor="start" x="279.51" y="-42.4" font-family="Times-12" font-weight="bold" font-size="14.00">Legend</text>
<polygon fill="#ffffb3" stroke="transparent" points="66.5,-10 66.5,-30 86.5,-30 86.5,-10 66.5,-10"/>
<text text-anchor="start" x="90.13" y="-15.4" font-family="Times-12" font-size="14.00"> &#160;Declarations</text>
<polygon fill="#8dd3c7" stroke="transparent" points="179.5,-10 179.5,-30 199.5,-30 199.5,-10 179.5,-10"/>
<text text-anchor="start" x="203.23" y="-15.4" font-family="Times-12" font-size="14.00"> &#160;Module</text>
<polygon fill="#80b1d3" stroke="transparent" points="265.5,-10 265.5,-30 285.5,-30 285.5,-10 265.5,-10"/>
<text text-anchor="start" x="289.28" y="-15.4" font-family="Times-12" font-size="14.00"> &#160;Bootstrap</text>
<polygon fill="#fdb462" stroke="transparent" points="362.5,-10 362.5,-30 382.5,-30 382.5,-10 362.5,-10"/>
<text text-anchor="start" x="386.17" y="-15.4" font-family="Times-12" font-size="14.00"> &#160;Providers</text>
<polygon fill="#fb8072" stroke="transparent" points="458.5,-10 458.5,-30 478.5,-30 478.5,-10 458.5,-10"/>
<text text-anchor="start" x="482.23" y="-15.4" font-family="Times-12" font-size="14.00"> &#160;Exports</text>
<g id="clust1" class="cluster">
<title>cluster_BootstrapModule</title>
<polygon fill="none" stroke="black" stroke-dasharray="1,5" points="8,-70 8,-195 593,-195 593,-70 8,-70"/>
</g>
<g id="clust3" class="cluster">
<title>cluster_BootstrapModule_imports</title>
<polygon fill="none" stroke="black" points="16,-78 16,-130 585,-130 585,-78 16,-78"/>
</g>
<!-- BasicAuthModule -->
<g id="node1" class="node">
<title>BasicAuthModule</title>
<polygon fill="#8dd3c7" stroke="black" points="577.15,-122 574.15,-126 553.15,-126 550.15,-122 458.85,-122 458.85,-86 577.15,-86 577.15,-122"/>
<text text-anchor="middle" x="518" y="-99.8" font-family="Times,serif" font-size="14.00">BasicAuthModule</text>
</g>
<!-- BootstrapModule -->
<g id="node6" class="node">
<title>BootstrapModule</title>
<polygon fill="#8dd3c7" stroke="black" points="348.99,-187 345.99,-191 324.99,-191 321.99,-187 235.01,-187 235.01,-151 348.99,-151 348.99,-187"/>
<text text-anchor="middle" x="292" y="-164.8" font-family="Times,serif" font-size="14.00">BootstrapModule</text>
</g>
<!-- BasicAuthModule&#45;&gt;BootstrapModule -->
<g id="edge1" class="edge">
<title>BasicAuthModule&#45;&gt;BootstrapModule</title>
<path fill="none" stroke="black" d="M518,-122.11C518,-141.34 518,-169 518,-169 518,-169 359.03,-169 359.03,-169"/>
<polygon fill="black" stroke="black" points="359.03,-165.5 349.03,-169 359.03,-172.5 359.03,-165.5"/>
</g>
<!-- CoreModule -->
<g id="node2" class="node">
<title>CoreModule</title>
<polygon fill="#8dd3c7" stroke="black" points="440.26,-122 437.26,-126 416.26,-126 413.26,-122 353.74,-122 353.74,-86 440.26,-86 440.26,-122"/>
<text text-anchor="middle" x="397" y="-99.8" font-family="Times,serif" font-size="14.00">CoreModule</text>
</g>
<!-- CoreModule&#45;&gt;BootstrapModule -->
<g id="edge2" class="edge">
<title>CoreModule&#45;&gt;BootstrapModule</title>
<path fill="none" stroke="black" d="M353.54,-104C346.89,-104 342.18,-104 342.18,-104 342.18,-104 342.18,-140.89 342.18,-140.89"/>
<polygon fill="black" stroke="black" points="338.68,-140.89 342.18,-150.89 345.68,-140.89 338.68,-140.89"/>
</g>
<!-- InfraModule -->
<g id="node3" class="node">
<title>InfraModule</title>
<polygon fill="#8dd3c7" stroke="black" points="335.25,-122 332.25,-126 311.25,-126 308.25,-122 248.75,-122 248.75,-86 335.25,-86 335.25,-122"/>
<text text-anchor="middle" x="292" y="-99.8" font-family="Times,serif" font-size="14.00">InfraModule</text>
</g>
<!-- InfraModule&#45;&gt;BootstrapModule -->
<g id="edge3" class="edge">
<title>InfraModule&#45;&gt;BootstrapModule</title>
<path fill="none" stroke="black" d="M292,-122.11C292,-122.11 292,-140.99 292,-140.99"/>
<polygon fill="black" stroke="black" points="288.5,-140.99 292,-150.99 295.5,-140.99 288.5,-140.99"/>
</g>
<!-- PluginModule -->
<g id="node4" class="node">
<title>PluginModule</title>
<polygon fill="#8dd3c7" stroke="black" points="231.11,-122 228.11,-126 207.11,-126 204.11,-122 134.89,-122 134.89,-86 231.11,-86 231.11,-122"/>
<text text-anchor="middle" x="183" y="-99.8" font-family="Times,serif" font-size="14.00">PluginModule</text>
</g>
<!-- PluginModule&#45;&gt;BootstrapModule -->
<g id="edge4" class="edge">
<title>PluginModule&#45;&gt;BootstrapModule</title>
<path fill="none" stroke="black" d="M231.3,-104C237.54,-104 241.82,-104 241.82,-104 241.82,-104 241.82,-140.89 241.82,-140.89"/>
<polygon fill="black" stroke="black" points="238.32,-140.89 241.82,-150.89 245.32,-140.89 238.32,-140.89"/>
</g>
<!-- RouteModule -->
<g id="node5" class="node">
<title>RouteModule</title>
<polygon fill="#8dd3c7" stroke="black" points="116.49,-122 113.49,-126 92.49,-126 89.49,-122 23.51,-122 23.51,-86 116.49,-86 116.49,-122"/>
<text text-anchor="middle" x="70" y="-99.8" font-family="Times,serif" font-size="14.00">RouteModule</text>
</g>
<!-- RouteModule&#45;&gt;BootstrapModule -->
<g id="edge5" class="edge">
<title>RouteModule&#45;&gt;BootstrapModule</title>
<path fill="none" stroke="black" d="M70,-122.11C70,-141.34 70,-169 70,-169 70,-169 224.83,-169 224.83,-169"/>
<polygon fill="black" stroke="black" points="224.83,-172.5 234.83,-169 224.83,-165.5 224.83,-172.5"/>
</g>
</g>
</svg>
