<?xml version="1.0" encoding="UTF-8" standalone="no"?>
<!DOCTYPE svg PUBLIC "-//W3C//DTD SVG 1.1//EN"
 "http://www.w3.org/Graphics/SVG/1.1/DTD/svg11.dtd">
<!-- Generated by graphviz version 2.47.0 (20210316.0004)
 -->
<!-- Title: dependencies Pages: 1 -->
<svg width="538pt" height="211pt"
 viewBox="0.00 0.00 538.00 211.00" xmlns="http://www.w3.org/2000/svg" xmlns:xlink="http://www.w3.org/1999/xlink">
<g id="graph0" class="graph" transform="scale(1 1) rotate(0) translate(4 207)">
<title>dependencies</title>
<polygon fill="white" stroke="transparent" points="-4,4 -4,-207 534,-207 534,4 -4,4"/>
<text text-anchor="start" x="244.01" y="-42.4" font-family="Times-12" font-weight="bold" font-size="14.00">Legend</text>
<polygon fill="#ffffb3" stroke="transparent" points="31,-10 31,-30 51,-30 51,-10 31,-10"/>
<text text-anchor="start" x="54.63" y="-15.4" font-family="Times-12" font-size="14.00"> &#160;Declarations</text>
<polygon fill="#8dd3c7" stroke="transparent" points="144,-10 144,-30 164,-30 164,-10 144,-10"/>
<text text-anchor="start" x="167.73" y="-15.4" font-family="Times-12" font-size="14.00"> &#160;Module</text>
<polygon fill="#80b1d3" stroke="transparent" points="230,-10 230,-30 250,-30 250,-10 230,-10"/>
<text text-anchor="start" x="253.78" y="-15.4" font-family="Times-12" font-size="14.00"> &#160;Bootstrap</text>
<polygon fill="#fdb462" stroke="transparent" points="327,-10 327,-30 347,-30 347,-10 327,-10"/>
<text text-anchor="start" x="350.67" y="-15.4" font-family="Times-12" font-size="14.00"> &#160;Providers</text>
<polygon fill="#fb8072" stroke="transparent" points="423,-10 423,-30 443,-30 443,-10 423,-10"/>
<text text-anchor="start" x="446.73" y="-15.4" font-family="Times-12" font-size="14.00"> &#160;Exports</text>
<g id="clust1" class="cluster">
<title>cluster_BasicAuthModule</title>
<polygon fill="none" stroke="black" stroke-dasharray="1,5" points="8,-70 8,-195 522,-195 522,-70 8,-70"/>
</g>
<g id="clust6" class="cluster">
<title>cluster_BasicAuthModule_providers</title>
<polygon fill="none" stroke="black" points="16,-78 16,-130 514,-130 514,-78 16,-78"/>
</g>
<!-- BasicAuthService -->
<g id="node1" class="node">
<title>BasicAuthService</title>
<ellipse fill="#fdb462" stroke="black" cx="425" cy="-104" rx="80.51" ry="18"/>
<text text-anchor="middle" x="425" y="-99.8" font-family="Times,serif" font-size="14.00">BasicAuthService</text>
</g>
<!-- BasicAuthModule -->
<g id="node4" class="node">
<title>BasicAuthModule</title>
<polygon fill="#8dd3c7" stroke="black" points="301.15,-187 298.15,-191 277.15,-191 274.15,-187 182.85,-187 182.85,-151 301.15,-151 301.15,-187"/>
<text text-anchor="middle" x="242" y="-164.8" font-family="Times,serif" font-size="14.00">BasicAuthModule</text>
</g>
<!-- BasicAuthService&#45;&gt;BasicAuthModule -->
<g id="edge1" class="edge">
<title>BasicAuthService&#45;&gt;BasicAuthModule</title>
<path fill="none" stroke="black" d="M425,-122.11C425,-141.34 425,-169 425,-169 425,-169 311.16,-169 311.16,-169"/>
<polygon fill="black" stroke="black" points="311.16,-165.5 301.16,-169 311.16,-172.5 311.16,-165.5"/>
</g>
<!-- BasicAuthStrategy -->
<g id="node2" class="node">
<title>BasicAuthStrategy</title>
<ellipse fill="#fdb462" stroke="black" cx="242" cy="-104" rx="83.96" ry="18"/>
<text text-anchor="middle" x="242" y="-99.8" font-family="Times,serif" font-size="14.00">BasicAuthStrategy</text>
</g>
<!-- BasicAuthStrategy&#45;&gt;BasicAuthModule -->
<g id="edge2" class="edge">
<title>BasicAuthStrategy&#45;&gt;BasicAuthModule</title>
<path fill="none" stroke="black" d="M242,-122.11C242,-122.11 242,-140.99 242,-140.99"/>
<polygon fill="black" stroke="black" points="238.5,-140.99 242,-150.99 245.5,-140.99 238.5,-140.99"/>
</g>
<!-- UserService -->
<g id="node3" class="node">
<title>UserService</title>
<ellipse fill="#fdb462" stroke="black" cx="82" cy="-104" rx="58.44" ry="18"/>
<text text-anchor="middle" x="82" y="-99.8" font-family="Times,serif" font-size="14.00">UserService</text>
</g>
<!-- UserService&#45;&gt;BasicAuthModule -->
<g id="edge3" class="edge">
<title>UserService&#45;&gt;BasicAuthModule</title>
<path fill="none" stroke="black" d="M82,-122.11C82,-141.34 82,-169 82,-169 82,-169 172.42,-169 172.42,-169"/>
<polygon fill="black" stroke="black" points="172.42,-172.5 182.42,-169 172.42,-165.5 172.42,-172.5"/>
</g>
</g>
</svg>
